<?xml version="1.0" encoding="utf-8"?>
<!-- Generator: Adobe Illustrator 16.0.0, SVG Export Plug-In . SVG Version: 6.00 Build 0)  -->
<!DOCTYPE svg PUBLIC "-//W3C//DTD SVG 1.1//EN" "http://www.w3.org/Graphics/SVG/1.1/DTD/svg11.dtd">
<svg version="1.1" xmlns="http://www.w3.org/2000/svg" xmlns:xlink="http://www.w3.org/1999/xlink" x="0px" y="0px"
	 width="163.667px" height="163.667px" viewBox="0 0 163.667 163.667" enable-background="new 0 0 163.667 163.667"
	 xml:space="preserve">
<g id="Layer_3">
	<g>
		<g>
			<path fill-rule="evenodd" clip-rule="evenodd" fill="#604573" d="M151.333,34.833c0-12.703-10.297-23-23-23
				c-7.62,0-14.371,3.708-18.556,9.414c-8.794-4.107-18.598-6.414-28.944-6.414c-37.832,0-68.5,30.669-68.5,68.5
				c0,37.832,30.668,68.5,68.5,68.5s68.5-30.668,68.5-68.5c0-10.854-2.535-21.113-7.029-30.233
				C147.791,48.896,151.333,42.279,151.333,34.833z"/>
		</g>
	</g>
</g>
<g id="Recycle" display="none">
	<path display="inline" fill="#FFFFFF" d="M40.244,58.586l6.682,61.99c0.719,4.843,3.683,8.228,8.225,8.228h51.365
		c4.542,0,7.576-3.385,8.226-8.228l6.682-61.99H40.244z M107.358,105.785l-7.788,0.061l-5.687-9.192l5.658-3.498L107.358,105.785z
		 M79.53,65.132l5.802,0.233l8.432,16.541l-0.079,0.04l0.007,0.011l4.986-2.52c0.123-0.066,0.274-0.047,0.385,0.039
		c0.109,0.085,0.156,0.229,0.124,0.362l-3.166,13.266c-0.024,0.103-0.094,0.189-0.189,0.233c-0.093,0.05-0.204,0.054-0.299,0.014
		l-12.556-5.32c-0.13-0.056-0.218-0.178-0.222-0.314c-0.004-0.141,0.074-0.275,0.196-0.334l4.874-2.466l-3.685-7.228l0.019-0.012
		l-5.61-10.945L79.53,65.132z M77.017,69.227l3.554,6.929l-6.558,10.497l-5.674-3.481L77.017,69.227z M54.621,115.543l-2.841-5.062
		l9.684-15.844l0.074,0.043l0.007-0.01l-4.76-2.928c-0.119-0.072-0.182-0.213-0.167-0.348c0.016-0.14,0.111-0.255,0.243-0.298
		l12.962-4.246c0.098-0.03,0.209-0.017,0.293,0.038c0.094,0.056,0.156,0.146,0.171,0.253l2.04,13.48
		c0.022,0.138-0.038,0.276-0.156,0.353c-0.116,0.079-0.265,0.079-0.383,0.007l-4.653-2.864l-4.232,6.923l-0.015-0.011l-6.392,10.514
		H54.621z M74.976,115.543H59.422l4.046-6.654h11.508V115.543z M107.074,114.95l-18.569,0.1v-0.086h-0.012l0.012,5.588
		c0.003,0.139-0.082,0.266-0.207,0.327c-0.125,0.055-0.275,0.036-0.379-0.054l-10.432-8.786c-0.079-0.069-0.126-0.166-0.126-0.275
		c0-0.104,0.046-0.205,0.125-0.271l10.394-8.83c0.108-0.091,0.258-0.115,0.38-0.055c0.129,0.06,0.212,0.188,0.212,0.325l0.012,5.463
		l8.112-0.044v0.018l12.302-0.094l0.987,1.597L107.074,114.95z"/>
	<path display="inline" fill="#FFFFFF" d="M113.574,46.875H48.096c-4.063,0-7.415,2.948-8.086,6.815h81.646
		C120.986,49.823,117.635,46.875,113.574,46.875z"/>
	
		<text transform="matrix(1 0 0 1 123.5732 41.333)" display="inline" fill="#FFFFFF" font-family="'RobotoSlab-Bold'" font-size="24">4</text>
</g>
<g id="Shred">
	<rect x="64.002" y="78.646" fill="#FFFFFF" width="33.69" height="5.107"/>
	<g>
		<defs>
			<rect id="SVGID_1_" x="39.131" y="49.341" width="83.404" height="74.281"/>
		</defs>
		<clipPath id="SVGID_2_">
			<use xlink:href="#SVGID_1_"  overflow="visible"/>
		</clipPath>
		<path clip-path="url(#SVGID_2_)" fill="#FFFFFF" d="M119.689,92.958h-12.021V49.341H73.12L53.997,68.41v24.548H41.977
			c-1.571,0-2.847,1.273-2.847,2.845v6.596c0,1.441,1.06,2.606,2.447,2.793v2.473c0,0.681,0.545,1.251,1.225,1.251
			c0.678,0,1.25-0.57,1.25-1.251v-2.447h9.813v18.404h2.447v-18.404h1.223v15.957h2.447v-15.957h1.223v18.404h2.447v-18.404h1.251
			v18.404h2.446v-18.404h1.222v15.957h2.447v-15.957h1.225v15.957h2.474v-15.957h1.223v18.404h2.445v-18.404h1.225v17.182h2.447
			v-17.182h1.223v14.735h2.474v-14.735h1.224v15.957h2.446v-15.957h1.224v15.957h2.447v-15.957h1.223v15.957h2.475v-15.957h1.223
			v14.735h2.447v-14.735h1.223v17.182h2.445v-17.182h1.225v15.957h2.474v-15.957h9.813v2.447c0,0.681,0.546,1.251,1.224,1.251
			c0.68,0,1.222-0.57,1.222-1.251v-2.473c1.392-0.187,2.448-1.352,2.448-2.793v-6.596C122.534,94.231,121.261,92.958,119.689,92.958
			 M72.801,55.831v12.287H60.354L72.801,55.831z M96.284,92.958v-3.352H65.406v3.352h-6.728V72.824h18.803V54.048h25.506v38.91
			H96.284z M104.129,101.549c-1.353,0-2.445-1.094-2.445-2.447c0-1.355,1.093-2.474,2.445-2.474c1.356,0,2.475,1.118,2.475,2.474
			C106.604,100.455,105.485,101.549,104.129,101.549 M110.273,101.549c-1.354,0-2.446-1.094-2.446-2.447
			c0-1.355,1.093-2.474,2.446-2.474c1.355,0,2.447,1.118,2.447,2.474C112.721,100.455,111.629,101.549,110.273,101.549
			 M116.419,101.549c-1.355,0-2.475-1.094-2.475-2.447c0-1.355,1.119-2.474,2.475-2.474c1.354,0,2.445,1.118,2.445,2.474
			C118.864,100.455,117.772,101.549,116.419,101.549"/>
		<rect x="84.186" y="58.729" clip-path="url(#SVGID_2_)" fill="#FFFFFF" width="12.1" height="4.708"/>
		<rect x="84.186" y="68.118" clip-path="url(#SVGID_2_)" fill="#FFFFFF" width="12.1" height="4.706"/>
	</g>
	<text transform="matrix(1 0 0 1 123.8193 42.334)" fill="#FFFFFF" font-family="'RobotoSlab-Bold'" font-size="24">3</text>
</g>
<g id="Secure" display="none">
	<path display="inline" fill="#FFFFFF" d="M107.235,73.536c0-0.188,0-0.346,0-0.503c0-4.618,0.021-9.236-0.006-13.855
		c-0.064-10.682-6.779-20.149-16.833-23.771c-2.166-0.78-4.399-1.249-6.695-1.416c-0.116-0.009-0.23-0.046-0.346-0.069
		c-1.013,0-2.024,0-3.036,0c-0.802,0.103-1.607,0.189-2.408,0.31c-10.021,1.51-18.368,9.179-20.749,19.057
		c-0.492,2.041-0.729,4.11-0.725,6.21c0.006,4.513,0.001,9.024,0.001,13.536c0,0.157,0,0.314,0,0.503
		c-2.407,0.216-4.776,0.427-7.165,0.64c0,17.572,0,35.122,0,52.709c0.838,0.078,1.667,0.157,2.498,0.23
		c7.517,0.664,15.033,1.327,22.549,1.991c2.412,0.213,4.822,0.464,7.238,0.627c0.814,0.056,1.644-0.089,2.466-0.161
		c4.719-0.413,9.438-0.831,14.156-1.249c5.355-0.473,10.711-0.948,16.066-1.422c0.04-0.004,0.078-0.015,0.147-0.027
		c0-17.546,0-35.094,0-52.698C112.028,73.965,109.652,73.752,107.235,73.536z M83.579,100.54c0.662,2.396,1.312,4.797,1.965,7.196
		c0.036,0.139,0.071,0.278,0.113,0.445c-2.559,0-5.081,0-7.641,0c0.042-0.166,0.076-0.306,0.113-0.444
		c0.65-2.386,1.296-4.774,1.958-7.156c0.085-0.302,0.057-0.455-0.236-0.631c-1.503-0.903-2.175-2.646-1.698-4.311
		c0.475-1.656,1.987-2.782,3.723-2.772c1.705,0.012,3.195,1.157,3.654,2.81c0.462,1.666-0.226,3.392-1.74,4.292
		C83.521,100.129,83.504,100.271,83.579,100.54z M99.568,72.857c-0.912-0.077-1.771-0.148-2.63-0.224
		c-4.945-0.437-9.888-0.908-14.837-1.291c-1.102-0.084-2.227,0.13-3.339,0.226c-3.833,0.333-7.663,0.677-11.495,1.015
		c-1.033,0.091-2.064,0.181-3.162,0.278c0-0.212,0-0.355,0-0.5c0-4.299-0.005-8.598,0.001-12.899
		c0.011-8.567,5.783-15.706,14.154-17.51c9.536-2.055,19.23,4.404,20.975,14.005c0.2,1.106,0.31,2.245,0.318,3.37
		c0.037,4.366,0.015,8.732,0.015,13.1C99.568,72.556,99.568,72.685,99.568,72.857z"/>
	
		<text transform="matrix(1 0 0 1 123.7021 41.333)" display="inline" fill="#FFFFFF" font-family="'RobotoSlab-Bold'" font-size="24">2</text>
</g>
<g id="Collect" display="none">
	<g display="inline">
		<g>
			<path fill="#FFFFFF" d="M93.815,54.82v33.887H42.193V54.82H93.815 M96.087,51.126H39.923c-0.785,0-1.424,0.641-1.424,1.423
				v38.431c0,0.783,0.639,1.421,1.424,1.421h56.164c0.782,0,1.423-0.638,1.423-1.421V52.549
				C97.51,51.767,96.869,51.126,96.087,51.126L96.087,51.126z"/>
		</g>
		<g>
			<path fill="#FFFFFF" d="M96.087,95.25h-32.65c-0.781,0-1.423,0.64-1.423,1.422v3.381c0,0.782,0.642,1.422,1.423,1.422h32.65
				c0.782,0,1.423-0.64,1.423-1.422v-3.381C97.51,95.89,96.869,95.25,96.087,95.25L96.087,95.25z"/>
		</g>
		<g>
			<path fill="#FFFFFF" d="M110.083,115.541c-5.728,0-10.388-4.66-10.388-10.389c0.001-5.728,4.661-10.386,10.388-10.386
				s10.387,4.659,10.387,10.386C120.47,110.881,115.81,115.541,110.083,115.541z M110.083,98.461c-3.69,0-6.692,3.001-6.693,6.691
				c0,3.691,3.002,6.694,6.693,6.694c3.69,0,6.692-3.003,6.692-6.694C116.775,101.462,113.773,98.461,110.083,98.461z
				 M110.083,109.847c-2.588,0-4.694-2.106-4.694-4.694s2.106-4.693,4.694-4.693s4.694,2.105,4.694,4.693
				S112.671,109.847,110.083,109.847z M110.083,104.153c-0.552,0-1,0.448-1,0.999c0,0.552,0.448,1,1,1s1-0.448,1-1
				C111.083,104.602,110.635,104.153,110.083,104.153z"/>
		</g>
		<g>
			<path fill="#FFFFFF" d="M50.54,115.541c-5.728,0-10.387-4.66-10.387-10.389c0-5.727,4.659-10.386,10.387-10.386
				s10.388,4.659,10.388,10.386C60.928,110.881,56.268,115.541,50.54,115.541z M50.54,98.461c-3.69,0-6.692,3.001-6.692,6.691
				c0,3.691,3.002,6.694,6.692,6.694s6.693-3.003,6.693-6.694C57.233,101.462,54.23,98.461,50.54,98.461z M50.54,109.847
				c-2.588,0-4.694-2.106-4.694-4.694s2.106-4.693,4.694-4.693s4.695,2.105,4.695,4.693S53.128,109.847,50.54,109.847z
				 M50.54,104.153c-0.551,0-1,0.448-1,0.999c0,0.552,0.449,1,1,1c0.552,0,1.001-0.448,1.001-1
				C51.541,104.602,51.092,104.153,50.54,104.153z"/>
		</g>
		<g>
			<path fill="#FFFFFF" d="M116.063,65.197l10.874,18.458c0.089,0.173,0.213,0.625,0.224,0.793v16.588h-0.919
				c-1.574-5.832-5.525-12.386-15.33-12.386h-6.861V65.197H116.063 M116.751,61.503H101.78c-0.782,0-1.424,0.641-1.424,1.426v27.992
				c0,0.783,0.642,1.424,1.424,1.424h9.132c10.617,0,11.625,9.59,12.126,11.072c0.278,0.813,1.19,1.313,1.974,1.313h4.42
				c0.782,0,1.424-0.641,1.424-1.423V84.448c0-0.782-0.326-1.975-0.724-2.648l-11.234-19.068c-0.397-0.675-1.364-1.227-2.146-1.227
				V61.503L116.751,61.503z"/>
		</g>
	</g>
	
		<text transform="matrix(1 0 0 1 125.0322 41.333)" display="inline" fill="#FFFFFF" font-family="'RobotoSlab-Bold'" font-size="24">1</text>
</g>
</svg>
